<svg version="1.0" xmlns="http://www.w3.org/2000/svg"
 width="1024.000000pt" height="1024.000000pt" viewBox="0 0 1024.000000 1024.000000"
 preserveAspectRatio="xMidYMid meet">

<g transform="translate(0.000000,1024.000000) scale(0.100000,-0.100000)"
fill="#000000" stroke="none">
<path d="M4976 9439 c-125 -17 -353 -102 -546 -202 -101 -53 -317 -188 -414
-259 -44 -32 -84 -58 -90 -58 -6 0 -87 11 -181 25 -220 32 -281 32 -343 1 -76
-39 -83 -49 -186 -306 -37 -91 -70 -168 -74 -172 -4 -4 -63 -14 -132 -23 -350
-46 -410 -69 -461 -180 -35 -76 -22 -140 49 -247 14 -21 23 -40 21 -42 -2 -1
-44 -11 -94 -20 -174 -34 -245 -69 -295 -145 -72 -110 -65 -217 22 -352 19
-30 54 -85 78 -124 47 -76 73 -118 173 -273 37 -56 67 -106 67 -110 0 -4 -20
-26 -45 -50 -44 -43 -69 -100 -77 -176 -2 -20 -12 -34 -33 -45 -235 -127 -468
-391 -564 -639 -110 -286 -120 -646 -26 -927 95 -284 293 -532 543 -678 35
-20 68 -37 73 -37 5 0 9 -22 9 -48 0 -118 58 -217 155 -267 58 -30 61 -30 224
-31 91 0 171 -2 178 -2 6 -1 33 -41 59 -89 26 -49 97 -169 159 -268 124 -201
228 -378 330 -565 37 -69 89 -163 115 -210 26 -47 78 -143 115 -215 37 -71 82
-155 100 -185 18 -30 55 -95 84 -144 l51 -88 -15 -103 c-18 -120 -20 -330 -4
-441 48 -347 296 -683 616 -835 286 -136 642 -142 928 -16 320 141 546 415
636 770 30 116 37 363 15 511 l-16 109 39 71 c21 39 57 105 79 146 329 613
601 1092 733 1288 16 24 29 45 29 47 0 3 19 37 43 77 23 40 48 87 55 104 l13
31 178 6 c153 4 186 8 227 27 99 43 164 140 164 243 0 62 2 65 60 96 129 69
284 198 364 304 16 20 33 34 39 30 6 -3 7 -1 3 5 -3 6 13 41 38 79 82 127 137
266 173 433 28 134 26 431 -5 570 -76 337 -274 620 -560 799 -68 42 -104 70
-107 85 -2 11 -7 39 -10 61 -9 55 -27 85 -75 129 -38 34 -40 39 -27 54 8 9 40
58 71 107 31 50 62 99 69 109 93 148 198 320 215 352 46 91 35 205 -28 291
-41 56 -125 96 -263 127 -59 13 -110 25 -112 28 -3 3 14 38 37 79 37 63 43 81
42 129 0 60 -17 100 -60 144 -55 54 -96 67 -330 100 l-222 31 -63 165 c-73
194 -87 225 -125 265 -16 17 -27 34 -25 40 1 5 -1 7 -5 2 -4 -4 -17 -1 -28 7
-52 34 -115 36 -287 11 -90 -14 -181 -28 -202 -31 -35 -6 -47 0 -211 110 -96
64 -177 116 -181 116 -3 0 -24 12 -47 26 -65 41 -283 147 -387 188 -175 69
-361 96 -515 75z m419 -279 c223 -89 501 -247 684 -389 l24 -18 -82 -419 c-45
-230 -91 -464 -101 -518 -11 -55 -23 -102 -27 -106 -13 -12 -335 -221 -344
-223 -4 -1 -80 103 -168 232 l-161 234 0 633 0 633 53 -16 c28 -8 84 -28 122
-43z m-415 -575 l0 -624 -127 -188 c-70 -103 -144 -211 -165 -240 l-38 -52
-72 48 c-40 26 -121 78 -180 115 -68 44 -108 76 -112 89 -28 118 -196 1002
-192 1012 14 38 260 194 481 305 155 78 352 159 387 160 16 0 17 -43 18 -625z
m-1287 136 c87 -15 162 -32 166 -37 5 -5 43 -184 85 -399 42 -214 85 -432 96
-483 19 -87 19 -95 4 -125 -26 -50 -224 -366 -233 -371 -4 -3 -59 1 -122 10
-63 8 -178 23 -257 33 -78 10 -144 20 -146 22 -2 2 -54 83 -116 179 -62 96
-154 238 -204 315 -119 180 -200 314 -195 319 4 4 307 41 424 52 60 5 73 10
100 38 17 17 46 67 64 111 109 265 154 365 164 365 7 -1 83 -13 170 -29z
m3027 -48 c18 -42 52 -129 77 -192 65 -167 86 -204 125 -224 21 -11 100 -24
223 -38 105 -11 212 -25 238 -31 l48 -10 -25 -42 c-13 -23 -60 -98 -104 -166
-44 -69 -113 -177 -153 -240 -40 -63 -110 -172 -156 -242 l-82 -128 -40 0
c-21 0 -139 -14 -261 -30 -122 -17 -224 -30 -225 -28 -9 11 -160 248 -203 320
l-52 87 34 178 c19 98 60 311 91 473 30 162 59 304 63 315 7 16 34 23 173 46
90 15 171 27 181 28 11 1 26 -22 48 -76z m-3877 -1026 c43 -67 130 -201 192
-297 63 -96 114 -181 115 -188 0 -10 -91 -190 -106 -211 -2 -2 -51 3 -109 9
-99 12 -107 15 -120 39 -13 26 -53 89 -284 451 -61 95 -111 185 -111 197 0 45
39 69 141 87 52 9 114 21 139 25 25 5 50 9 55 10 6 0 45 -54 88 -122z m4747
96 c114 -23 139 -31 163 -54 15 -15 27 -36 27 -47 0 -19 -51 -107 -152 -262
-30 -47 -100 -157 -156 -246 l-101 -160 -106 -14 c-58 -7 -107 -11 -109 -9
-14 16 -106 199 -106 210 0 8 32 64 71 125 40 60 121 188 182 284 125 199 125
200 141 200 6 0 72 -12 146 -27z m-2195 -420 c61 -83 127 -103 207 -62 22 11
81 48 130 81 49 33 91 58 93 56 4 -4 -36 -235 -115 -668 -23 -124 -43 -226
-44 -227 -1 -2 -45 -11 -97 -22 -89 -19 -294 -72 -331 -86 -17 -7 -18 25 -18
575 l0 583 73 -95 c39 -52 85 -113 102 -135z m-416 -310 c1 -285 -1 -542 -5
-570 -6 -49 -7 -51 -30 -42 -34 12 -287 76 -359 89 l-60 12 -34 181 c-18 100
-55 301 -83 446 -27 145 -47 265 -44 268 2 3 62 -32 134 -76 113 -71 134 -81
175 -81 43 0 51 4 95 48 26 26 80 93 121 149 40 56 77 101 81 98 4 -2 8 -237
9 -522z m-804 117 c26 -135 61 -324 79 -420 l33 -175 -161 -6 c-89 -3 -191 -9
-227 -14 l-65 -7 -99 158 c-54 88 -136 218 -182 290 -106 168 -106 169 -62
160 76 -14 325 -46 358 -46 72 0 96 26 234 251 21 34 40 60 42 58 2 -2 24
-114 50 -249z m1983 113 c56 -86 101 -145 120 -155 35 -21 97 -23 192 -7 36 6
111 16 167 23 l101 12 -14 -27 c-7 -15 -69 -117 -136 -226 -67 -109 -139 -227
-161 -263 -60 -99 -60 -99 -115 -88 -26 5 -127 10 -224 11 -151 2 -178 4 -178
17 0 8 27 164 59 345 33 182 65 367 72 413 8 45 16 82 20 82 4 0 47 -62 97
-137z m804 -423 c40 -68 70 -92 125 -97 26 -3 67 0 91 5 23 5 42 7 42 4 0 -12
-150 -254 -258 -415 -29 -43 -26 -43 -125 16 -40 24 -106 58 -147 76 -41 19
-79 37 -83 41 -11 10 -9 15 151 273 l135 218 22 -38 c12 -21 33 -58 47 -83z
m-3498 -142 c75 -119 136 -219 136 -222 0 -3 -51 -30 -112 -60 -62 -29 -138
-70 -168 -89 -30 -20 -55 -35 -56 -34 0 1 -65 102 -142 223 -78 122 -142 227
-142 234 0 8 7 10 18 5 9 -4 40 -9 67 -12 39 -3 60 1 95 19 38 20 51 35 89
106 42 81 44 83 62 65 9 -10 79 -115 153 -235z m-610 -171 l136 -209 -2 -746
-3 -747 -142 -3 -143 -3 0 968 c0 596 4 963 9 958 5 -6 71 -104 145 -218z
m4646 -739 l0 -963 -145 -1 -145 0 0 748 0 749 138 214 c75 118 140 215 145
215 4 0 7 -433 7 -962z m-5042 -659 l-3 -440 -45 30 c-58 38 -158 136 -209
204 -53 69 -122 211 -155 315 -79 253 -53 591 63 820 65 128 198 287 301 361
l45 32 3 -440 c1 -243 1 -639 0 -882z m5341 1284 c181 -146 309 -343 371 -568
32 -114 39 -375 15 -495 -55 -275 -196 -499 -399 -639 l-46 -32 0 886 c0 487
3 885 6 885 4 0 28 -17 53 -37z m-3674 -389 c57 -20 140 -97 169 -157 30 -64
40 -144 27 -209 -23 -110 -118 -215 -225 -248 -23 -7 -70 -11 -115 -8 -126 8
-206 61 -268 181 -24 45 -28 64 -28 137 0 101 20 154 86 225 91 99 215 126
354 79z m2209 -8 c63 -29 131 -96 160 -156 17 -36 21 -64 21 -140 0 -84 -3
-101 -27 -145 -38 -71 -79 -112 -145 -143 -49 -23 -72 -27 -143 -27 -71 0 -93
4 -134 25 -65 33 -124 94 -155 160 -37 77 -37 202 -2 274 43 86 131 158 221
177 56 12 149 1 204 -25z m-1076 -765 c51 -35 218 -119 308 -155 222 -87 504
-135 719 -122 l110 7 -21 -23 c-12 -13 -94 -101 -182 -197 -89 -96 -169 -190
-178 -209 -21 -45 -11 -96 26 -134 39 -39 102 -39 153 0 20 15 150 155 289
312 256 289 465 510 481 510 4 0 7 -226 5 -507 -4 -487 -5 -511 -26 -578 -88
-284 -333 -567 -650 -749 -138 -79 -409 -189 -518 -209 l-32 -6 -1 167 c-1 92
-5 178 -8 192 -21 89 -110 197 -198 240 l-50 25 -374 3 -374 3 -63 -30 c-35
-16 -83 -50 -108 -74 -90 -90 -115 -180 -116 -410 l0 -117 -27 6 c-76 18 -272
93 -382 145 -341 162 -597 405 -734 697 -72 154 -77 201 -77 742 l1 475 87
-90 c77 -79 478 -525 617 -685 28 -32 67 -68 87 -79 32 -19 43 -20 77 -11 76
20 116 110 78 176 -7 12 -88 103 -181 202 -157 169 -214 234 -189 219 5 -3 61
-9 124 -13 306 -17 670 75 946 238 47 27 87 47 91 44 3 -4 5 -163 4 -353 -1
-319 0 -350 18 -389 23 -53 67 -78 122 -71 22 3 49 14 60 24 46 40 48 61 48
443 0 198 3 360 6 360 3 0 18 -8 32 -19z m-2270 -915 l3 -26 -130 0 c-123 0
-131 1 -145 22 -9 12 -16 25 -16 28 0 3 64 4 142 3 l143 -1 3 -26z m4512 20
c0 -5 -7 -18 -17 -28 -14 -16 -33 -18 -145 -18 l-128 0 0 28 0 27 145 0 c82 0
145 -4 145 -9z m-2070 -789 c13 -7 35 -28 47 -46 22 -32 23 -43 23 -207 0
-156 -2 -173 -17 -178 -43 -13 -250 -28 -383 -29 -129 0 -283 12 -377 29 l-33
6 0 161 c0 141 2 166 20 203 35 72 42 74 390 74 224 0 312 -4 330 -13z m-1456
-457 c25 -12 40 -40 91 -160 90 -212 148 -345 189 -433 l35 -78 -42 3 -42 3
-63 120 c-34 66 -112 217 -173 335 -61 118 -122 234 -136 257 l-24 41 68 -36
c37 -20 81 -43 97 -52z m2378 18 c-16 -29 -82 -156 -148 -283 -65 -126 -139
-270 -165 -319 l-46 -89 -42 -1 c-22 0 -41 0 -41 2 0 3 92 217 158 367 19 44
54 125 77 180 l41 100 90 47 c49 26 93 47 97 48 5 0 -4 -24 -21 -52z m-1945
-168 l81 -23 12 -61 c12 -65 107 -413 116 -427 3 -5 -14 -9 -38 -9 l-43 0
-114 268 c-63 147 -117 271 -119 276 -3 5 1 7 9 4 8 -2 51 -15 96 -28z m1415
-146 c-38 -87 -88 -207 -112 -266 l-44 -108 -47 0 -47 0 24 75 c13 41 42 151
66 246 23 94 46 172 52 174 6 2 47 14 91 27 44 13 81 21 83 18 1 -4 -28 -78
-66 -166z m-944 66 l102 -12 0 -212 c0 -117 -2 -215 -4 -217 -2 -2 -31 -2 -64
-1 -52 3 -61 7 -65 25 -3 12 -28 110 -56 217 -28 107 -51 201 -51 208 0 8 7
11 18 8 9 -2 63 -10 120 -16z m572 -2 c0 -7 -24 -107 -53 -223 l-53 -210 -62
-3 -62 -3 0 215 0 215 53 5 c28 3 66 8 82 9 68 8 95 7 95 -5z m507 -748 c7
-36 12 -73 13 -82 0 -17 -48 -18 -870 -18 l-870 0 0 28 c0 16 5 54 11 85 l12
57 846 -2 846 -3 12 -65z m-33 -482 c-51 -168 -151 -309 -293 -416 -184 -139
-397 -198 -624 -173 -305 32 -545 198 -677 466 -27 55 -52 110 -55 123 l-6 22
831 0 831 0 -7 -22z"/>
</g>
</svg>
